HIERARCHY
ROOT Root
{
  OFFSET 0.0 0.0 0.0
  CHANNELS 6 Xposition Yposition Zposition Zrotation Yrotation Xrotation
  JOINT Hips
  {
    OFFSET 0.0 100.0 0.0
    CHANNELS 6 Xposition Yposition Zposition Zrotation Yrotation Xrotation
    JOINT Spine1
    {
      OFFSET 5.003913 -0.037094 -0.013727
      CHANNELS 3 Zrotation Yrotation Xrotation
      JOINT Spine2
      {
        OFFSET 7.125363 -1e-06 0.0
        CHANNELS 3 Zrotation Yrotation Xrotation
        JOINT Chest
        {
          OFFSET 7.594027 1e-06 0.0
          CHANNELS 3 Zrotation Yrotation Xrotation
          JOINT Neck1
          {
            OFFSET 26.313086 -0.460272 -0.181672
            CHANNELS 3 Zrotation Yrotation Xrotation
            JOINT Neck2
            {
              OFFSET 8.045911 0.0 0.0
              CHANNELS 3 Zrotation Yrotation Xrotation
              JOINT Head
              {
                OFFSET 6.432774 0.0 0.0
                CHANNELS 3 Zrotation Yrotation Xrotation
                JOINT HeadEnd
                {
                  OFFSET 16.169773 0.06451 0.00362
                  CHANNELS 3 Zrotation Yrotation Xrotation
                }
                JOINT Jaw
                {
                  OFFSET 0.108741 3.12938 0.002639
                  CHANNELS 3 Zrotation Yrotation Xrotation
                }
                JOINT LeftEye
                {
                  OFFSET 4.45173 8.166359 3.206392
                  CHANNELS 3 Zrotation Yrotation Xrotation
                }
                JOINT RightEye
                {
                  OFFSET 4.436895 8.135758 -3.222429
                  CHANNELS 3 Zrotation Yrotation Xrotation
                }
              }
            }
          }
          JOINT LeftShoulder
          {
            OFFSET 23.218927 5.195579 1.621656
            CHANNELS 3 Zrotation Yrotation Xrotation
            JOINT LeftArm
            {
              OFFSET 15.902118 2e-06 -2e-06
              CHANNELS 3 Zrotation Yrotation Xrotation
              JOINT LeftForeArm
              {
                OFFSET 28.739307 0.0 -1e-06
                CHANNELS 3 Zrotation Yrotation Xrotation
                JOINT LeftHand
                {
                  OFFSET 27.093981 -4e-06 0.0
                  CHANNELS 3 Zrotation Yrotation Xrotation
                  JOINT LeftHandThumb1
                  {
                    OFFSET 2.276781 3.380274 0.83384
                    CHANNELS 3 Zrotation Yrotation Xrotation
                    JOINT LeftHandThumb2
                    {
                      OFFSET 4.705309 -1e-06 -1e-06
                      CHANNELS 3 Zrotation Yrotation Xrotation
                      JOINT LeftHandThumb3
                      {
                        OFFSET 2.798515 0.0 3e-06
                        CHANNELS 3 Zrotation Yrotation Xrotation
                        JOINT LeftHandThumbEnd
                        {
                          OFFSET 3.180793 4e-06 -4e-06
                          CHANNELS 3 Zrotation Yrotation Xrotation
                        }
                      }
                    }
                  }
                  JOINT LeftHandIndex1
                  {
                    OFFSET 3.247786 2.352677 0.137192
                    CHANNELS 3 Zrotation Yrotation Xrotation
                    JOINT LeftHandIndex2
                    {
                      OFFSET 6.367095 1e-06 0.0
                      CHANNELS 3 Zrotation Yrotation Xrotation
                      JOINT LeftHandIndex3
                      {
                        OFFSET 3.662364 0.0 0.0
                        CHANNELS 3 Zrotation Yrotation Xrotation
                        JOINT LeftHandIndex4
                        {
                          OFFSET 2.329242 4e-06 -4e-06
                          CHANNELS 3 Zrotation Yrotation Xrotation
                          JOINT LeftHandIndexEnd
                          {
                            OFFSET 2.767823 1e-06 0.0
                            CHANNELS 3 Zrotation Yrotation Xrotation
                          }
                        }
                      }
                    }
                  }
                  JOINT LeftHandMiddle1
                  {
                    OFFSET 3.163612 0.945023 -0.406112
                    CHANNELS 3 Zrotation Yrotation Xrotation
                    JOINT LeftHandMiddle2
                    {
                      OFFSET 6.276789 3e-06 0.0
                      CHANNELS 3 Zrotation Yrotation Xrotation
                      JOINT LeftHandMiddle3
                      {
                        OFFSET 4.35652 -1e-06 4e-06
                        CHANNELS 3 Zrotation Yrotation Xrotation
                        JOINT LeftHandMiddle4
                        {
                          OFFSET 2.996877 0.0 8e-06
                          CHANNELS 3 Zrotation Yrotation Xrotation
                          JOINT LeftHandMiddleEnd
                          {
                            OFFSET 2.323256 3e-06 -4e-06
                            CHANNELS 3 Zrotation Yrotation Xrotation
                          }
                        }
                      }
                    }
                  }
                  JOINT LeftHandRing1
                  {
                    OFFSET 2.882606 -0.309162 0.107445
                    CHANNELS 3 Zrotation Yrotation Xrotation
                    JOINT LeftHandRing2
                    {
                      OFFSET 6.033198 0.0 4e-06
                      CHANNELS 3 Zrotation Yrotation Xrotation
                      JOINT LeftHandRing3
                      {
                        OFFSET 4.350578 3e-06 0.0
                        CHANNELS 3 Zrotation Yrotation Xrotation
                        JOINT LeftHandRing4
                        {
                          OFFSET 2.651321 2e-06 -7e-06
                          CHANNELS 3 Zrotation Yrotation Xrotation
                          JOINT LeftHandRingEnd
                          {
                            OFFSET 1.937663 1e-06 -4e-06
                            CHANNELS 3 Zrotation Yrotation Xrotation
                          }
                        }
                      }
                    }
                  }
                  JOINT LeftHandPinky1
                  {
                    OFFSET 2.865315 -1.525436 0.575687
                    CHANNELS 3 Zrotation Yrotation Xrotation
                    JOINT LeftHandPinky2
                    {
                      OFFSET 5.54936 1e-06 -8e-06
                      CHANNELS 3 Zrotation Yrotation Xrotation
                      JOINT LeftHandPinky3
                      {
                        OFFSET 3.070974 0.0 -4e-06
                        CHANNELS 3 Zrotation Yrotation Xrotation
                        JOINT LeftHandPinky4
                        {
                          OFFSET 1.549672 1e-06 0.0
                          CHANNELS 3 Zrotation Yrotation Xrotation
                          JOINT LeftHandPinkyEnd
                          {
                            OFFSET 1.952123 0.0 0.0
                            CHANNELS 3 Zrotation Yrotation Xrotation
                          }
                        }
                      }
                    }
                  }
                }
              }
            }
          }
          JOINT RightShoulder
          {
            OFFSET 23.161716 5.296122 -1.380114
            CHANNELS 3 Zrotation Yrotation Xrotation
            JOINT RightArm
            {
              OFFSET -16.027195 -2e-06 1.1e-05
              CHANNELS 3 Zrotation Yrotation Xrotation
              JOINT RightForeArm
              {
                OFFSET -28.736639 4e-06 2e-06
                CHANNELS 3 Zrotation Yrotation Xrotation
                JOINT RightHand
                {
                  OFFSET -27.133619 6e-06 0.0
                  CHANNELS 3 Zrotation Yrotation Xrotation
                  JOINT RightHandThumb1
                  {
                    OFFSET -2.274328 -3.351035 -0.83067
                    CHANNELS 3 Zrotation Yrotation Xrotation
                    JOINT RightHandThumb2
                    {
                      OFFSET -4.703594 -3e-06 2e-06
                      CHANNELS 3 Zrotation Yrotation Xrotation
                      JOINT RightHandThumb3
                      {
                        OFFSET -2.794935 -4e-06 -3e-06
                        CHANNELS 3 Zrotation Yrotation Xrotation
                        JOINT RightHandThumbEnd
                        {
                          OFFSET -3.183852 4e-06 1e-06
                          CHANNELS 3 Zrotation Yrotation Xrotation
                        }
                      }
                    }
                  }
                  JOINT RightHandIndex1
                  {
                    OFFSET -3.253496 -2.33755 -0.127667
                    CHANNELS 3 Zrotation Yrotation Xrotation
                    JOINT RightHandIndex2
                    {
                      OFFSET -6.344434 0.0 0.0
                      CHANNELS 3 Zrotation Yrotation Xrotation
                      JOINT RightHandIndex3
                      {
                        OFFSET -3.654871 0.0 -8e-06
                        CHANNELS 3 Zrotation Yrotation Xrotation
                        JOINT RightHandIndex4
                        {
                          OFFSET -2.327586 -1e-06 0.0
                          CHANNELS 3 Zrotation Yrotation Xrotation
                          JOINT RightHandIndexEnd
                          {
                            OFFSET -2.770001 3e-06 8e-06
                            CHANNELS 3 Zrotation Yrotation Xrotation
                          }
                        }
                      }
                    }
                  }
                  JOINT RightHandMiddle1
                  {
                    OFFSET -3.168223 -0.944764 0.411762
                    CHANNELS 3 Zrotation Yrotation Xrotation
                    JOINT RightHandMiddle2
                    {
                      OFFSET -6.266691 -1e-06 -4e-06
                      CHANNELS 3 Zrotation Yrotation Xrotation
                      JOINT RightHandMiddle3
                      {
                        OFFSET -4.348901 0.0 0.0
                        CHANNELS 3 Zrotation Yrotation Xrotation
                        JOINT RightHandMiddle4
                        {
                          OFFSET -3.00024 2e-06 -4e-06
                          CHANNELS 3 Zrotation Yrotation Xrotation
                          JOINT RightHandMiddleEnd
                          {
                            OFFSET -2.321477 -4e-06 -4e-06
                            CHANNELS 3 Zrotation Yrotation Xrotation
                          }
                        }
                      }
                    }
                  }
                  JOINT RightHandRing1
                  {
                    OFFSET -2.885654 0.293261 -0.119232
                    CHANNELS 3 Zrotation Yrotation Xrotation
                    JOINT RightHandRing2
                    {
                      OFFSET -6.032835 -1e-06 -4e-06
                      CHANNELS 3 Zrotation Yrotation Xrotation
                      JOINT RightHandRing3
                      {
                        OFFSET -4.33881 0.0 -4e-06
                        CHANNELS 3 Zrotation Yrotation Xrotation
                        JOINT RightHandRing4
                        {
                          OFFSET -2.654903 -4e-06 -4e-06
                          CHANNELS 3 Zrotation Yrotation Xrotation
                          JOINT RightHandRingEnd
                          {
                            OFFSET -1.935122 0.0 4e-06
                            CHANNELS 3 Zrotation Yrotation Xrotation
                          }
                        }
                      }
                    }
                  }
                  JOINT RightHandPinky1
                  {
                    OFFSET -2.866241 1.503904 -0.60527
                    CHANNELS 3 Zrotation Yrotation Xrotation
                    JOINT RightHandPinky2
                    {
                      OFFSET -5.553177 -2e-06 0.0
                      CHANNELS 3 Zrotation Yrotation Xrotation
                      JOINT RightHandPinky3
                      {
                        OFFSET -3.062664 -1e-06 -4e-06
                        CHANNELS 3 Zrotation Yrotation Xrotation
                        JOINT RightHandPinky4
                        {
                          OFFSET -1.546529 2e-06 4e-06
                          CHANNELS 3 Zrotation Yrotation Xrotation
                          JOINT RightHandPinkyEnd
                          {
                            OFFSET -1.952341 0.0 -4e-06
                            CHANNELS 3 Zrotation Yrotation Xrotation
                          }
                        }
                      }
                    }
                  }
                }
              }
            }
          }
        }
      }
    }
    JOINT LeftLeg
    {
      OFFSET -8.443107 2.567604 10.043214
      CHANNELS 3 Zrotation Yrotation Xrotation
      JOINT LeftShin
      {
        OFFSET 43.229198 1e-06 -1e-06
        CHANNELS 3 Zrotation Yrotation Xrotation
        JOINT LeftFoot
        {
          OFFSET 42.298611 1e-06 1e-06
          CHANNELS 3 Zrotation Yrotation Xrotation
          JOINT LeftToeBase
          {
            OFFSET 14.165858 1e-06 0.0
            CHANNELS 3 Zrotation Yrotation Xrotation
            JOINT LeftToeEnd
            {
              OFFSET 6.7141 -0.234461 0.0
              CHANNELS 3 Zrotation Yrotation Xrotation
            }
          }
        }
      }
    }
    JOINT RightLeg
    {
      OFFSET -8.303923 2.592729 -10.047278
      CHANNELS 3 Zrotation Yrotation Xrotation
      JOINT RightShin
      {
        OFFSET -43.369682 0.0 1e-06
        CHANNELS 3 Zrotation Yrotation Xrotation
        JOINT RightFoot
        {
          OFFSET -42.260784 4e-06 2e-06
          CHANNELS 3 Zrotation Yrotation Xrotation
          JOINT RightToeBase
          {
            OFFSET -14.222245 -2e-06 -1e-06
            CHANNELS 3 Zrotation Yrotation Xrotation
            JOINT RightToeEnd
            {
              OFFSET -6.660062 0.232574 -2e-06
              CHANNELS 3 Zrotation Yrotation Xrotation
            }
          }
        }
      }
    }
  }
}
MOTION
Frames: 4
Frame Time: 0.03333333333333333
0.0 0.0 0.0 0.0 -0.0 0.0 0.920812 100.858597 2.906006 90.306 -2.069432 89.814171 -1.975191 0.000634 -0.134953 -11.30292 -0.486156 0.08872 15.342685 -0.025504 -1.912596 15.643853 -0.473689 2.409523 -2.373445 -0.851225 -0.749115 -26.623854 -2.609999 0.126297 6e-06 -1e-06 0.0 -0.008801 0.02332 -0.094091 -0.005765 0.10533 -0.083128 -0.004554 -0.063325 -0.098748 -136.137253 -70.242378 151.322128 32.178543 -50.273685 9.308262 34.184189 0.222834 0.092137 2.333367 -2.402568 6.194094 17.636757 -26.322794 52.411415 -19.466923 -14.395706 29.410652 1e-06 -8.774938 -3e-06 15.958096 -18.24173 6.14101 -0.609779 -1.795675 -3.88935 -4.807144 -11.046943 -2.937887 1.6e-05 -20.976334 -4.8e-05 -5.020014 -25.034063 -4.032006 6e-06 1e-06 -1e-06 -10.634624 -5.687033 -3.5656 10.57339 -17.923147 -3.113968 1.5e-05 -13.821404 -3.3e-05 -0.50171 -31.182125 -4.027164 -11.497373 -59.800594 7.301142 -13.982828 -7.150273 -2.875053 13.772872 -8.401582 -3.218284 0.347786 -34.212109 0.771566 -0.96301 -17.733704 2.621031 0.0 -3e-06 1e-06 -17.346586 -20.095423 -4.201796 21.757788 -1.638378 3.86646 2e-06 -6.33891 -1.5e-05 -1.697582 -22.592196 -6.194184 -2e-06 -6e-06 -2e-06 32.520634 -71.516449 164.461731 32.257229 -50.795532 4.077963 33.074459 -0.655036 -0.049615 0.393504 -10.526442 15.127355 22.182306 -20.375835 49.933453 -16.702003 -16.743603 28.476667 -0.0 -12.690733 -2.2e-05 16.090126 -17.954014 2.499216 -0.105919 -1.513875 -4.275898 -5.039092 -5.612932 -2.953579 5e-06 -11.02065 -2.8e-05 -6.11137 -15.89558 -3.840557 -0.0 -3e-06 3e-06 -10.283451 -5.680344 -4.341853 11.028389 -11.302497 -2.372662 -1.384285 -14.238744 -6.320206 -0.62539 -26.92457 -3.827726 -4.155214 -49.589069 -4.172884 -13.708633 -7.363549 -3.720953 18.141312 -14.052858 -3.242713 3.3e-05 -18.787466 -6.3e-05 -0.429688 -8.456147 2.555509 -1e-06 1e-06 -0.0 -15.923679 -20.094664 -5.473614 30.41947 -7.190889 1.735967 1.8e-05 -8.162996 -2.7e-05 -1.861853 -22.86175 -6.168108 3e-06 -6e-06 -4e-06 -179.194962 -4.22946 -8.839821 5.614666 -0.004141 -0.030107 -74.626938 1.087825 -4.73676 -7.191408 1.468494 2.045545 -1.000005 0.0 -0.0 0.220289 -4.356646 -10.548869 8.100317 0.005794 -0.065926 -76.117302 -1.274637 -5.736294 -7.475045 0.784863 1.652691 -1.000004 -0.0 -0.0 
0.0 0.0 0.0 0.0 -0.0 0.0 0.438317 100.837875 3.11589 90.216789 -2.247046 89.779427 -1.902769 0.007664 -0.138841 -11.275038 -0.487038 0.118617 15.236393 -0.068661 -2.007052 15.599895 -0.406442 2.453956 -2.343285 -0.858627 -0.727442 -26.696012 -2.544468 0.1349 6e-06 -1e-06 0.0 -0.0119 0.018651 -0.084633 0.0045 0.096838 -0.075227 0.005281 -0.063819 -0.088795 -135.92128 -70.452866 151.123703 31.939075 -50.171329 8.860954 34.481621 0.149264 0.026022 2.353467 -2.442194 6.053195 17.636717 -26.32287 52.411411 -19.466812 -14.395656 29.41057 -7e-06 -8.774885 -5e-06 15.931888 -18.203859 6.099845 -0.60978 -1.795665 -3.889342 -4.807106 -11.046886 -2.937869 2.7e-05 -20.976233 -1.2e-05 -5.019981 -25.033901 -4.031928 7e-06 2e-06 -0.0 -10.634576 -5.686997 -3.565605 10.573344 -17.923092 -3.113926 1.6e-05 -13.82135 -5e-06 -0.501729 -31.181978 -4.02707 -11.43572 -59.717491 7.29326 -13.982769 -7.150229 -2.875055 13.772807 -8.401563 -3.218262 0.347781 -34.211952 0.771641 -0.963024 -17.733625 2.621067 0.0 -1e-06 0.0 -17.346483 -20.095316 -4.201803 21.757669 -1.638398 3.866451 8e-06 -6.338884 -1e-06 -1.697561 -22.592052 -6.194092 -2e-06 -3e-06 -5e-06 32.655964 -71.713432 164.343185 32.746597 -50.959007 3.916487 32.973457 -0.664804 -0.064178 0.485407 -10.738981 14.798421 22.182232 -20.37606 49.93359 -16.701984 -16.743647 28.476765 -2.2e-05 -12.690708 7e-06 16.126911 -17.979002 2.457443 -0.105917 -1.513866 -4.275903 -5.039067 -5.612912 -2.953575 1.8e-05 -11.020644 -3e-06 -6.111331 -15.895555 -3.840516 1e-06 -1e-06 -3e-06 -10.283419 -5.680313 -4.341862 11.028384 -11.302507 -2.372654 -1.384252 -14.238731 -6.320178 -0.625394 -26.924591 -3.827642 -4.163001 -49.70293 -4.186264 -13.70859 -7.363507 -3.720957 18.141296 -14.05287 -3.242714 3e-05 -18.787479 1e-06 -0.429704 -8.45617 2.555542 -2e-06 -1e-06 -3e-06 -15.923601 -20.094593 -5.473616 30.419418 -7.190917 1.735912 1.6e-05 -8.163014 -1e-06 -1.861873 -22.861805 -6.168015 2e-06 -7e-06 -0.0 -179.22406 -4.651665 -8.671294 5.612012 0.014335 0.01446 -74.657417 0.934931 -5.24754 -7.483179 1.502967 2.04322 -1.000001 0.0 0.0 -0.247659 -3.978604 -10.21752 8.986953 -0.005487 -0.025839 -76.639137 -1.606996 -5.430683 -7.66403 0.788582 1.650446 -1.000006 0.0 0.0 
0.0 0.0 0.0 0.0 -0.0 0.0 -0.191502 100.785027 3.449602 90.097519 -2.474011 89.739075 -1.838215 0.018485 -0.153334 -11.260522 -0.487395 0.109464 15.160677 -0.119945 -2.068588 15.539077 -0.298749 2.496889 -2.363125 -0.861996 -0.694781 -26.660389 -2.527716 0.16362 6e-06 -0.0 0.0 -0.017065 0.015972 -0.097522 0.010952 0.086645 -0.085548 0.014498 -0.058904 -0.105267 -135.724136 -70.685448 150.993317 31.587805 -50.027443 8.488805 34.821102 0.074224 -0.022391 2.337107 -2.471309 5.836722 17.636829 -26.323019 52.411701 -19.46698 -14.395783 29.410788 -4e-06 -8.774977 -3e-06 15.870413 -18.218451 6.104166 -0.609782 -1.795677 -3.889363 -4.807155 -11.046973 -2.937891 2e-05 -20.976419 -1.6e-05 -5.020061 -25.034163 -4.031968 9e-06 1e-06 0.0 -10.634651 -5.687037 -3.565613 10.573436 -17.923222 -3.11396 9e-06 -13.821464 -8e-06 -0.50175 -31.182306 -4.027126 -11.47893 -59.65731 7.255931 -13.982868 -7.15028 -2.87506 13.772925 -8.401619 -3.218291 0.347775 -34.21228 0.771642 -0.963033 -17.733807 2.621082 -1e-06 -1e-06 1e-06 -17.346624 -20.095461 -4.201808 21.757862 -1.638404 3.866479 4e-06 -6.338937 -3e-06 -1.697599 -22.592289 -6.194159 -3e-06 -3e-06 -2e-06 32.714279 -71.896317 164.218628 33.175777 -51.09779 3.824007 32.992241 -0.700457 -0.104795 0.524089 -10.866966 14.602777 22.182322 -20.376049 49.933685 -16.702015 -16.74371 28.47682 5e-06 -12.690781 -0.0 16.172958 -17.990707 2.442318 -0.105918 -1.51387 -4.275915 -5.039102 -5.61294 -2.953584 -2e-06 -11.020681 -5e-06 -6.111405 -15.895628 -3.840542 -1e-06 1e-06 1e-06 -10.283469 -5.680348 -4.341867 11.028417 -11.302524 -2.372664 -1.384293 -14.238787 -6.320208 -0.625443 -26.924694 -3.827685 -4.174656 -49.765285 -4.235664 -13.70866 -7.363551 -3.720961 18.141361 -14.052893 -3.242716 2e-06 -18.787548 -1.1e-05 -0.429713 -8.456197 2.555543 -1e-06 -1e-06 1e-06 -15.923712 -20.09469 -5.473614 30.419563 -7.190897 1.735951 3e-06 -8.163038 -9e-06 -1.861919 -22.861898 -6.168075 -0.0 -4e-06 -0.0 -179.290833 -5.167502 -8.447533 5.647099 0.014318 0.033747 -74.816216 0.734728 -5.739717 -7.711079 1.514195 2.039102 -1.000004 -0.0 0.0 -0.689194 -3.480286 -9.870302 9.862766 -0.006259 0.003235 -77.300117 -2.038978 -5.148106 -7.769312 0.80232 1.652643 -1.000006 1e-06 0.0 
0.0 0.0 0.0 0.0 -0.0 0.0 -0.902016 100.686386 3.754091 89.897423 -2.673618 89.655899 -1.755547 0.083555 -0.151904 -11.254628 -0.46851 0.081847 15.124253 -0.171593 -2.115303 15.499018 -0.20974 2.515485 -2.396528 -0.877708 -0.579045 -26.68276 -2.527853 0.211816 6e-06 -0.0 0.0 -0.025476 0.015179 -0.108029 0.009387 0.07844 -0.091502 0.015794 -0.052359 -0.12072 -135.396118 -70.883087 150.782059 31.2138 -49.873138 8.224164 35.17498 0.064308 -0.028967 2.337264 -2.475897 5.753671 17.636673 -26.322826 52.411339 -19.466734 -14.395638 29.410505 -3e-06 -8.774863 -4e-06 15.778209 -18.184618 6.123288 -0.609779 -1.795658 -3.889338 -4.807105 -11.046856 -2.937857 7e-06 -20.976149 -0.0 -5.019997 -25.033785 -4.03191 8e-06 1e-06 1e-06 -10.634558 -5.686985 -3.565598 10.573309 -17.923025 -3.113908 5e-06 -13.821293 1e-06 -0.501771 -31.181801 -4.027036 -11.521023 -59.616302 7.234501 -13.982747 -7.150218 -2.875052 13.772774 -8.401526 -3.218251 0.34774 -34.211788 0.771668 -0.963039 -17.733541 2.621058 -1e-06 -2e-06 0.0 -17.34646 -20.09527 -4.201794 21.757629 -1.638385 3.866445 2e-06 -6.338861 4e-06 -1.697584 -22.591944 -6.194055 -1e-06 -2e-06 -2e-06 32.836334 -72.124672 163.981628 33.593964 -51.280212 3.810432 33.138958 -0.688254 -0.11802 0.608469 -10.873771 14.450583 22.182222 -20.376003 49.933533 -16.702021 -16.743681 28.476786 -1.9e-05 -12.690745 1.2e-05 16.194178 -17.997232 2.452799 -0.105915 -1.513867 -4.275903 -5.039077 -5.612925 -2.95357 1.5e-05 -11.020667 -7e-06 -6.111362 -15.895604 -3.840518 -0.0 0.0 -1e-06 -10.283427 -5.680323 -4.341849 11.028395 -11.302514 -2.372671 -1.384262 -14.238765 -6.320189 -0.625399 -26.924681 -3.827671 -4.20357 -49.8158 -4.258066 -13.708604 -7.363519 -3.720949 18.141329 -14.05288 -3.242732 2.5e-05 -18.787518 -1.6e-05 -0.429707 -8.456186 2.555537 3e-06 -4e-06 -4e-06 -15.923628 -20.094614 -5.473597 30.419477 -7.190904 1.735905 1.1e-05 -8.163027 -1e-05 -1.861889 -22.861864 -6.168056 0.0 -3e-06 0.0 -179.47554 -5.845552 -8.213997 6.095906 0.003888 0.043873 -75.312363 0.420615 -6.242756 -7.859474 1.512664 2.034886 -1.000002 0.0 0.0 -1.073941 -2.827687 -9.494144 10.671487 -0.003671 0.010284 -78.06147 -2.447733 -4.878175 -7.853492 0.811534 1.655715 -1.000005 -0.0 -0.0 
